<svg width="504" height="336" viewBox="0 0 504 336" fill="none" xmlns="http://www.w3.org/2000/svg">
<path d="M230.485 329.464H284.066V331.934H230.485V329.464Z" fill="#272727"/>
<path d="M234.551 327.032H281.748V329.464H234.551V327.032Z" fill="#FDDFD2"/>
<path d="M326.854 196.956C326.854 196.956 288.398 254.679 281.786 284.775L305.802 333.074L326.854 196.956Z" fill="#096473"/>
<path d="M254.311 316.734L305.764 333.074L296.492 245.103H249.181L254.311 316.734Z" fill="#FDDFD2"/>
<path d="M403.995 172.712L450.774 200.148C450.774 200.148 497.058 287.815 491.054 317.228L455.182 333.074H305.764C305.764 333.074 309.184 214.361 326.816 196.956L367.135 175.638L403.995 172.712Z" fill="#008EA3"/>
<path d="M367.173 161.54V175.638C367.173 175.638 376.825 191.788 403.995 172.712L394.457 118.827L368.731 159.184L367.173 161.54Z" fill="#FFC7BB"/>
<path d="M367.173 161.54V171.078C373.329 170.736 391.683 167.24 391.721 137.068L368.693 159.146L367.173 161.54Z" fill="#C98272"/>
<path d="M347.412 118.333C347.412 118.333 351.63 158.31 367.173 161.578C370.745 162.338 374.963 161.122 379.827 157.018C386.971 151.014 391.341 142.388 392.367 133.115C393.925 119.549 391.493 106.097 391.493 106.097L354.784 116.281L347.412 118.333Z" fill="#FFC7BB"/>
<path d="M280.304 321.218L272.589 327.184L277.264 318.52L280.304 321.218Z" fill="#281616"/>
<path d="M319.596 270.335L321.306 271.779C321.8 272.197 322.56 272.159 323.016 271.627L325.942 268.207C326.36 267.713 326.322 266.953 325.79 266.497L324.08 265.053C323.586 264.635 322.826 264.673 322.37 265.205L319.444 268.625C319.026 269.119 319.064 269.879 319.596 270.335Z" fill="#281616"/>
<path d="M322.18 267.067L324.384 268.967C325.03 269.537 326.018 269.461 326.588 268.777L329.058 265.889C329.628 265.243 329.552 264.255 328.868 263.685L326.664 261.785C326.018 261.215 325.03 261.291 324.46 261.975L321.99 264.863C321.42 265.509 321.496 266.535 322.18 267.067Z" fill="#FB2257"/>
<path d="M277.682 319.166L279.886 321.066C280.532 321.636 281.52 321.56 282.09 320.876L324.27 271.399C324.84 270.753 324.764 269.765 324.08 269.195L321.876 267.295C321.23 266.725 320.242 266.801 319.672 267.485L277.492 316.962C276.922 317.608 277.036 318.596 277.682 319.166Z" fill="#F8CA7A"/>
<path d="M266.965 288.651C266.965 288.651 249.713 278.353 248.459 278.733C247.205 279.113 247.851 284.737 247.851 284.737C247.851 284.737 266.205 295.263 266.965 288.651Z" fill="#FFC7BB"/>
<path d="M267.117 295.187C267.117 295.187 267.193 291.045 250.017 293.249C250.017 293.249 249.447 297.733 253.893 297.467C258.339 297.201 265.559 298.037 267.117 295.187Z" fill="#FFC7BB"/>
<path d="M266.965 298.836C266.965 298.836 253.817 296.328 250.283 298.266C250.283 298.266 249.333 301.952 252.525 302.408C255.717 302.864 267.497 304.042 266.965 298.836Z" fill="#FFC7BB"/>
<path d="M247.851 284.737L252.525 290.855V287.169L247.851 284.737Z" fill="#C98272"/>
<path d="M426.681 240.847C426.681 240.847 428.961 270.107 445.416 294.313L381.575 312.554C381.613 312.592 390.961 270.563 426.681 240.847Z" fill="#096473"/>
<path d="M282.774 295.985C283.268 292.223 303.218 291.957 306.6 292.223C309.982 292.527 336.772 310.388 339.926 311.148C342.282 311.718 349.54 310.16 353.036 309.362C354.48 309.02 355.962 308.716 357.444 308.488L450.394 293.173C453.928 291.957 457.88 291.235 462.06 291.235C477.564 291.235 490.18 300.774 490.18 312.554V312.82C489.99 324.486 477.488 333.872 462.06 333.872C461.49 333.872 460.958 333.872 460.388 333.834L355.05 331.288H354.936L341.294 330.946C334.492 336.228 308.158 326.918 308.158 326.918L291.932 328.552C286.27 327.222 289.614 322.586 289.614 322.586C282.014 322.586 286.346 315.67 286.346 315.67C286.346 315.67 285.092 315.442 284.484 313.162C281.824 315.518 279.24 315.1 279.24 315.1C279.24 315.1 282.28 299.748 282.774 295.985ZM300.026 300.318L289.424 303.016C289.196 304.042 288.968 304.992 288.702 305.866C293.224 302.94 299.608 300.47 300.026 300.318Z" fill="#FFC7BB"/>
<path d="M308.12 326.918C308.12 326.918 334.492 336.228 341.256 330.946L354.898 331.288H355.012L460.35 333.834C460.92 333.872 461.452 333.872 462.022 333.872C477.412 333.872 489.952 324.486 490.142 312.82C482.2 319.888 465.404 329.35 434.433 325.778C386.667 320.306 314.466 320.686 308.12 326.918Z" fill="#C98272"/>
<path d="M435.953 278.087L437.017 277.669C430.063 259.961 426.643 244.761 426.947 232.487C427.175 222.607 429.797 214.551 434.699 208.584C444.162 197.146 458.602 197.45 458.754 197.488L459.02 196.386C457.842 196.082 443.934 196.424 434.471 207.102C429.113 213.183 426.187 221.429 425.807 231.651C425.351 244.229 428.771 259.847 435.953 278.087Z" fill="#1A1A1A"/>
<path d="M347.412 118.333C347.412 118.333 351.63 158.31 367.173 161.578C367.173 161.578 351.972 134.142 354.784 116.281L347.412 118.333Z" fill="#C98272"/>
<path d="M388.149 117.231C388.149 117.231 331.376 135.244 330.844 94.8111C330.274 54.3786 344.98 99.4091 353.796 90.783C362.613 82.1569 389.669 71.6688 391.265 96.4831C391.265 96.4831 402.665 85.083 396.965 123.311C394.951 130.266 388.149 117.231 388.149 117.231Z" fill="#1A1A1A"/>
<path d="M393.849 121.753C393.849 121.753 403.387 104.235 401.069 120.879C398.751 137.562 396.889 135.852 393.849 121.753Z" fill="#FFC7BB"/>
<path d="M396.699 120.347C396.699 120.347 401.601 112.139 399.207 123.273C396.813 134.408 395.711 122.551 395.711 122.551L398.295 123.73L396.699 120.347Z" fill="#C98272"/>
<path d="M381.955 189.736C387.351 189.736 392.025 188.52 395.711 187C404.945 183.162 410.227 176.854 410.455 176.588L409.581 175.866C409.543 175.942 404.261 182.288 395.255 185.974C386.971 189.394 373.747 191.18 357.672 180.388L357.026 181.338C366.375 187.646 374.811 189.736 381.955 189.736Z" fill="#1A1A1A"/>
<path d="M361.017 112.557C365.121 112.557 369.681 111.873 374.659 110.505L374.545 110.125C361.967 113.545 352.2 112.633 345.512 107.351C335.708 99.6371 336.05 85.0829 336.05 84.9689H335.67C335.67 85.1209 335.366 99.8651 345.284 107.693C349.426 110.923 354.67 112.557 361.017 112.557Z" fill="white"/>
<path d="M385.413 97.3191L385.793 97.2051C384.387 92.835 381.917 89.833 378.421 88.351C374.811 86.793 368.161 86.071 357.14 91.391C356.874 91.505 356.684 91.619 356.646 91.619L356.684 91.733V91.999C356.76 91.999 356.798 91.961 357.33 91.733C368.237 86.451 374.735 87.173 378.307 88.693C381.613 90.137 384.045 93.025 385.413 97.3191Z" fill="white"/>
<path d="M364.019 107.009C366.755 107.009 369.719 106.743 372.873 106.249L372.797 105.869C361.359 107.655 352.618 106.173 346.804 101.461C340.42 96.2931 339.964 88.921 339.964 88.883L339.584 88.921C339.584 88.997 340.04 96.5211 346.538 101.803C350.87 105.261 356.722 107.009 364.019 107.009Z" fill="white"/>
<path d="M262.899 306.17C262.899 306.17 252.183 301.116 248.725 301.648C248.725 301.648 247.129 304.042 249.789 305.182C252.411 306.322 262.291 310.084 262.899 306.17Z" fill="#FFC7BB"/>
<path d="M19.3165 336H501.694C502.796 336 503.708 335.088 503.708 333.986C503.708 332.884 502.796 331.972 501.694 331.972H19.3545C18.2525 331.972 17.3405 332.884 17.3405 333.986C17.3025 335.088 18.2145 336 19.3165 336Z" fill="#272727"/>
<path d="M152.28 327.602H77.3431C76.3171 327.602 75.4051 326.956 75.0251 326.006L59.2169 283.711C58.6089 282.115 59.7869 280.405 61.5349 280.405H136.7C137.726 280.405 138.638 281.051 139.018 282.001L154.56 324.296C155.168 325.93 153.99 327.602 152.28 327.602Z" fill="#272727"/>
<path d="M60.205 286.219L75.0631 325.968C75.4431 326.956 76.3932 327.64 77.4572 327.64H149.772C151.558 327.64 152.774 325.854 152.166 324.182L146.58 309.172L137.346 284.433C136.966 283.445 136.016 282.761 134.952 282.761H62.637C60.813 282.761 59.559 284.547 60.205 286.219Z" fill="#FF3262"/>
<path d="M76.6971 331.288H151.558C152.584 331.288 153.382 330.452 153.382 329.464C153.382 328.438 152.546 327.64 151.558 327.64H76.6971C75.6711 327.64 74.8731 328.476 74.8731 329.464C74.8731 330.452 75.6711 331.288 76.6971 331.288Z" fill="#DBBEBF"/>
<path d="M153.344 331.288H222.353C223.379 331.288 224.177 330.452 224.177 329.464C224.177 328.438 223.341 327.64 222.353 327.64H153.344C152.318 327.64 151.52 328.476 151.52 329.464C151.482 330.452 152.318 331.288 153.344 331.288Z" fill="#272727"/>
<path d="M60.205 286.219L75.0631 325.968C75.4431 326.956 76.3932 327.64 77.4572 327.64H149.772C151.558 327.64 152.774 325.854 152.166 324.182L146.58 309.172L95.4314 282.761H62.637C60.813 282.761 59.559 284.547 60.205 286.219Z" fill="#DD2F57"/>
<path d="M205.937 97.3572L214.677 123.273H179.032L187.126 97.3572H205.937Z" fill="#FF3262"/>
<path d="M201.073 83.297L212.511 97.3572H181.844L192.637 83.297H201.073Z" fill="#272727"/>
<path d="M192.637 70.3008H201.073V83.335H192.637V70.3008Z" fill="#272727"/>
<path d="M197.159 97.3572V123.273H179.032L187.126 97.3572H197.159Z" fill="#DD2F57"/>
<path d="M196.589 0H197.729V76.7989H196.589V0Z" fill="#272727"/>
<path d="M145.972 116.433L154.712 142.35H119.068L127.162 116.433H145.972Z" fill="#FF3262"/>
<path d="M141.108 102.373L152.546 116.433H121.88L132.672 102.373H141.108Z" fill="#272727"/>
<path d="M132.672 89.377H141.108V102.411H132.672V89.377Z" fill="#272727"/>
<path d="M137.232 116.433V142.35H119.068L127.162 116.433H137.232Z" fill="#DD2F57"/>
<path d="M136.662 19.0762H137.802V95.8751H136.662V19.0762Z" fill="#272727"/>
<path d="M85.0952 180.046V143.756H51.4268L85.0952 180.046ZM84.7152 144.136V179.096L52.3008 144.136H84.7152Z" fill="#1A1A1A"/>
<path d="M216.425 182.82L215.665 182.744L216.805 173.358L217.565 173.434L217.033 177.956C218.021 177.196 229.725 168.19 241.847 170.204C248.345 171.306 253.893 175.296 258.263 182.174C259.707 180.844 265.483 176.094 273.235 176.588C280.114 177.006 286.688 181.376 292.73 189.508L293.148 190.078L293.756 185.024L294.516 185.1L293.376 194.486L292.616 194.41L293.11 190.268L216.919 178.716L216.425 182.82ZM291.552 189.204C285.776 181.756 279.62 177.766 273.159 177.348C272.779 177.31 272.437 177.31 272.057 177.31C264.039 177.31 258.453 182.972 258.415 183.048L258.073 183.39L257.807 182.972C253.513 176.056 248.079 172.028 241.695 170.964C231.131 169.216 220.833 176.056 218.097 178.07L291.552 189.204Z" fill="white"/>
<path d="M235.349 192.7L247.813 221.163C247.813 221.163 248.041 227.585 237.363 231.841C226.685 236.097 216.729 241.341 214.107 244.647L200.579 216.413C200.579 216.413 209.661 210.789 215.057 210.029C220.339 209.307 235.349 192.7 235.349 192.7Z" fill="#FDDFD2"/>
<path d="M63.435 35.6824L75.8992 64.1448C75.8992 64.1448 76.1272 70.5668 65.449 74.8229C54.7709 79.0789 44.8148 84.323 42.1928 87.6291L28.6646 59.3947C28.6646 59.3947 37.7467 53.7706 43.1428 53.0106C48.4248 52.2886 63.435 35.6824 63.435 35.6824Z" fill="#FDDFD2"/>
<path d="M485.506 59.3567L482.732 52.2126L503.518 38.4185L485.506 59.3567Z" fill="#1A1A1A"/>
<path d="M482.732 52.2126L476.766 50.1986L503.518 38.4185L482.732 52.2126Z" fill="#FDDFD2"/>
<path d="M489.8 54.3787L485.506 59.3567V52.9727L489.8 54.3787Z" fill="#1A1A1A"/>
<path d="M503.518 38.4185L495.272 56.1267L485.506 52.9726L503.518 38.4185Z" fill="#FDDFD2"/>
<path d="M466.696 87.0591C467.38 87.0591 468.026 86.9831 468.71 86.8691C473.574 85.9191 476.88 81.587 478.97 78.433C482.2 73.5309 484.708 68.2109 486.418 62.5868L486.038 62.4728C484.328 68.0589 481.858 73.3409 478.628 78.205C475.398 83.1451 472.206 85.7671 468.634 86.4891C463.39 87.5151 458.564 84.0571 456.132 81.891C454.27 80.257 452.636 78.395 451.23 76.381C452.56 73.2269 453.168 69.7309 453.016 66.3108C452.94 64.8668 452.446 62.8148 451.192 61.6748C450.584 61.1428 449.9 60.8768 449.14 60.9148C448.266 60.9528 447.544 61.3708 447.012 62.1308C445.948 63.6508 446.024 66.3488 446.632 68.1729C447.62 71.1369 449.026 73.9109 450.774 76.457C450.394 77.369 449.938 78.243 449.444 79.079C448.19 81.169 446.1 83.7531 443.098 84.3231C440.551 84.7791 437.967 83.6391 435.991 82.575C426.529 77.521 419.271 69.0849 412.279 60.9148C404.679 52.0987 396.851 42.9406 386.173 38.1525C376.635 33.8585 365.919 33.4785 354.86 33.4405C347.944 33.4024 341.294 33.7065 336.126 37.4685C333.2 39.5965 331.11 42.6366 329.058 45.6006C326.854 48.7926 324.574 52.0987 321.306 54.1507C316.86 56.9247 310.552 57.1907 304.472 54.8727C298.962 52.7447 294.288 48.9826 289.766 45.3726L256.667 18.7723L256.439 19.0763L289.538 45.6766C294.06 49.3246 298.772 53.0867 304.32 55.2527C310.514 57.6467 316.898 57.3427 321.458 54.4927C324.802 52.4027 327.12 49.0586 329.324 45.8286C331.338 42.9026 333.428 39.8625 336.278 37.7725C341.332 34.0865 347.906 33.8205 354.784 33.8205C365.805 33.8585 376.483 34.2385 385.945 38.4945C396.547 43.2446 404.337 52.3647 411.899 61.1428C418.929 69.3129 426.187 77.787 435.725 82.879C437.739 83.9431 440.399 85.1211 443.06 84.6651C446.214 84.0951 448.38 81.397 449.672 79.269C450.128 78.471 450.584 77.635 450.926 76.799C452.332 78.775 453.928 80.561 455.752 82.195C458.07 84.1331 462.098 87.0591 466.696 87.0591ZM449.33 61.2948C449.938 61.2948 450.508 61.5228 450.964 61.9408C452.104 62.9668 452.598 64.9428 452.674 66.3108C452.826 69.5789 452.256 72.9229 451.002 76.001C449.33 73.5309 448 70.8709 447.05 68.0209C446.48 66.2728 446.404 63.7648 447.354 62.3208C447.81 61.6748 448.418 61.3328 449.178 61.2948C449.254 61.2948 449.292 61.2948 449.33 61.2948Z" fill="#1A1A1A"/>
<path d="M294.709 111.602L324.728 124.902L306.24 166.63L276.221 153.329L294.709 111.602Z" fill="#FDDFD2"/>
<path d="M9.24485 133.826L96.113 212.267L86.8681 222.505L3.34011e-06 144.064L9.24485 133.826Z" fill="#FDDFD2"/>
<path d="M93.9493 218.693L94.1773 218.389L7.00426 142.084L3.0522 146.91L3.35623 147.138L7.08024 142.616L93.9493 218.693Z" fill="#1A1A1A"/>
<path d="M34.2548 175.076L38.7893 170.16L39.0686 170.417L34.5341 175.334L34.2548 175.076Z" fill="#1A1A1A"/>
<path d="M73.845 210.779L78.6309 205.023L78.923 205.266L74.1372 211.022L73.845 210.779Z" fill="#1A1A1A"/>
<path d="M71.3079 208.542L76.2333 202.954L76.5184 203.206L71.593 208.793L71.3079 208.542Z" fill="#1A1A1A"/>
<path d="M4.79021 148.49L8.50757 143.678L8.8083 143.911L5.09095 148.723L4.79021 148.49Z" fill="#1A1A1A"/>
<path d="M204.873 294.541L217.375 272.691L193.283 258.935L180.78 280.785L204.873 294.541ZM216.843 272.805L204.721 294.009L181.312 280.633L193.435 259.429L216.843 272.805Z" fill="#1A1A1A"/>
<path d="M206.697 310.578C214.753 310.578 221.327 304.004 221.327 295.948C221.327 287.891 214.753 281.317 206.697 281.317C198.641 281.317 192.067 287.891 192.067 295.948C192.067 304.004 198.641 310.578 206.697 310.578ZM206.697 281.697C214.563 281.697 220.947 288.081 220.947 295.948C220.947 303.814 214.563 310.198 206.697 310.198C198.831 310.198 192.447 303.814 192.447 295.948C192.447 288.081 198.831 281.697 206.697 281.697Z" fill="#1A1A1A"/>
<path d="M150.304 276.529L181.806 258.517L165.086 229.257L150.304 276.529ZM181.312 258.365L150.95 275.693L165.2 230.207L181.312 258.365Z" fill="#1A1A1A"/>
</svg>
